<svg version="1.1" id="Layer_1" xmlns="http://www.w3.org/2000/svg" xmlns:xlink="http://www.w3.org/1999/xlink" x="0px" y="0px"
	 width="100%" viewBox="0 0 1457 1457" enable-background="new 0 0 1457 1457" xml:space="preserve">
<path fill="#010301" opacity="1.000000" stroke="none" 
	d="
M996.000000,1458.000000 
	C664.000061,1458.000000 332.500122,1458.000000 1.000134,1458.000000 
	C1.000089,972.333496 1.000089,486.666962 1.000044,1.000329 
	C486.666412,1.000219 972.332825,1.000219 1457.999512,1.000110 
	C1457.999634,486.666351 1457.999634,972.332703 1457.999756,1457.999512 
	C1304.166626,1458.000000 1150.333374,1458.000000 996.000000,1458.000000 
M769.500000,187.093567 
	C756.331299,187.092148 743.159790,187.264740 729.994446,187.053940 
	C700.327820,186.578949 671.222534,190.110840 642.500793,197.702499 
	C600.562073,208.787659 561.344849,225.844040 525.655640,250.504196 
	C460.604675,295.452576 415.190674,355.829102 389.418365,430.243774 
	C377.018188,466.047852 367.995575,503.048950 358.097900,539.684753 
	C348.284210,576.009644 339.221130,612.538635 330.027435,649.028137 
	C328.809021,653.863892 326.902191,655.837708 321.607422,655.372925 
	C312.823212,654.601929 303.961670,654.738098 295.135590,654.413147 
	C267.485870,653.395386 240.513184,657.352905 214.720123,667.209595 
	C158.788818,688.583313 121.643303,727.293945 107.617752,786.395813 
	C105.457603,795.498413 104.916412,804.985229 103.515663,815.094238 
	C165.787384,815.094238 226.670273,815.094238 288.046051,815.094238 
	C287.623932,817.240234 287.407349,818.689758 287.050751,820.104004 
	C271.010498,883.719788 254.943695,947.328796 238.910339,1010.946350 
	C217.991531,1093.948242 197.086014,1176.953735 176.238937,1259.973755 
	C175.418350,1263.241577 175.260345,1266.675781 174.769562,1270.205444 
	C176.564957,1270.425293 177.540817,1270.617188 178.522583,1270.654907 
	C243.223373,1273.143555 298.476410,1251.293091 344.086182,1205.540771 
	C372.714996,1176.822632 389.921143,1141.551392 399.963074,1102.670776 
	C420.450653,1023.346558 440.646637,943.947021 460.973450,864.581299 
	C465.269043,847.809082 469.650452,831.058716 473.901184,814.275269 
	C474.885071,810.390442 477.091278,808.415894 481.098785,807.872864 
	C486.703613,807.113220 492.247284,805.913025 497.829498,804.974792 
	C537.697998,798.274292 576.552551,787.969849 613.958374,772.463806 
	C620.206726,769.873657 626.552795,767.519287 633.184387,764.926636 
	C633.614258,766.637207 633.962952,767.709656 634.147949,768.809509 
	C635.970276,779.644958 637.272400,790.594238 639.645325,801.306641 
	C661.429260,899.648926 715.126282,975.864441 801.291077,1027.689819 
	C885.757446,1078.493774 977.042969,1091.707886 1072.766113,1068.054688 
	C1152.102539,1048.450684 1217.300293,1005.338989 1266.210449,940.203430 
	C1332.387939,852.072754 1351.818604,753.383484 1325.369141,646.068665 
	C1314.430054,601.684998 1295.558472,560.947754 1267.994507,524.446167 
	C1234.951782,480.689453 1193.099609,447.344055 1144.141724,423.165741 
	C1076.869995,389.942963 1005.935913,379.482330 931.747986,391.180267 
	C876.061707,399.960846 825.786133,421.596283 779.980957,454.180603 
	C751.422058,474.496429 727.352173,499.700439 702.852661,524.431702 
	C655.616089,572.115112 600.796692,607.606934 536.743286,628.366699 
	C532.407043,629.772095 527.980164,630.897888 522.686340,632.414062 
	C523.213318,629.748230 523.441101,628.160156 523.844788,626.618103 
	C532.108276,595.050720 540.762207,563.579773 548.566833,531.899597 
	C556.325195,500.407349 565.515503,469.623199 582.862305,441.774445 
	C599.640625,414.838318 621.543518,393.688690 649.934326,379.227264 
	C667.928284,370.061707 687.216736,366.506653 706.979797,363.925751 
	C740.809204,359.507874 771.370056,346.563080 797.286865,324.422485 
	C834.703918,292.457336 855.612732,251.519409 859.870789,202.317535 
	C860.295593,197.409256 860.386108,192.472046 860.654358,187.095490 
	C830.093079,187.095490 800.296570,187.095490 769.500000,187.093567 
z"/>
<path fill="#AD45B2" opacity="1.000000" stroke="none" 
	d="
M770.000000,187.094528 
	C800.296570,187.095490 830.093079,187.095490 860.654358,187.095490 
	C860.386108,192.472046 860.295593,197.409256 859.870789,202.317535 
	C855.612732,251.519409 834.703918,292.457336 797.286865,324.422485 
	C771.370056,346.563080 740.809204,359.507874 706.979797,363.925751 
	C687.216736,366.506653 667.928284,370.061707 649.934326,379.227264 
	C621.543518,393.688690 599.640625,414.838318 582.862305,441.774445 
	C565.515503,469.623199 556.325195,500.407349 548.566833,531.899597 
	C540.762207,563.579773 532.108276,595.050720 523.844788,626.618103 
	C523.441101,628.160156 523.213318,629.748230 522.686340,632.414062 
	C527.980164,630.897888 532.407043,629.772095 536.743286,628.366699 
	C600.796692,607.606934 655.616089,572.115112 702.852661,524.431702 
	C727.352173,499.700439 751.422058,474.496429 779.980957,454.180603 
	C825.786133,421.596283 876.061707,399.960846 931.747986,391.180267 
	C1005.935913,379.482330 1076.869995,389.942963 1144.141724,423.165741 
	C1193.099609,447.344055 1234.951782,480.689453 1267.994507,524.446167 
	C1295.558472,560.947754 1314.430054,601.684998 1325.369141,646.068665 
	C1351.818604,753.383484 1332.387939,852.072754 1266.210449,940.203430 
	C1217.300293,1005.338989 1152.102539,1048.450684 1072.766113,1068.054688 
	C977.042969,1091.707886 885.757446,1078.493774 801.291077,1027.689819 
	C715.126282,975.864441 661.429260,899.648926 639.645325,801.306641 
	C637.272400,790.594238 635.970276,779.644958 634.147949,768.809509 
	C633.962952,767.709656 633.614258,766.637207 633.184387,764.926636 
	C626.552795,767.519287 620.206726,769.873657 613.958374,772.463806 
	C576.552551,787.969849 537.697998,798.274292 497.829498,804.974792 
	C492.247284,805.913025 486.703613,807.113220 481.098785,807.872864 
	C477.091278,808.415894 474.885071,810.390442 473.901184,814.275269 
	C469.650452,831.058716 465.269043,847.809082 460.973450,864.581299 
	C440.646637,943.947021 420.450653,1023.346558 399.963074,1102.670776 
	C389.921143,1141.551392 372.714996,1176.822632 344.086182,1205.540771 
	C298.476410,1251.293091 243.223373,1273.143555 178.522583,1270.654907 
	C177.540817,1270.617188 176.564957,1270.425293 174.769562,1270.205444 
	C175.260345,1266.675781 175.418350,1263.241577 176.238937,1259.973755 
	C197.086014,1176.953735 217.991531,1093.948242 238.910339,1010.946350 
	C254.943695,947.328796 271.010498,883.719788 287.050751,820.104004 
	C287.407349,818.689758 287.623932,817.240234 288.046051,815.094238 
	C226.670273,815.094238 165.787384,815.094238 103.515663,815.094238 
	C104.916412,804.985229 105.457603,795.498413 107.617752,786.395813 
	C121.643303,727.293945 158.788818,688.583313 214.720123,667.209595 
	C240.513184,657.352905 267.485870,653.395386 295.135590,654.413147 
	C303.961670,654.738098 312.823212,654.601929 321.607422,655.372925 
	C326.902191,655.837708 328.809021,653.863892 330.027435,649.028137 
	C339.221130,612.538635 348.284210,576.009644 358.097900,539.684753 
	C367.995575,503.048950 377.018188,466.047852 389.418365,430.243774 
	C415.190674,355.829102 460.604675,295.452576 525.655640,250.504196 
	C561.344849,225.844040 600.562073,208.787659 642.500793,197.702499 
	C671.222534,190.110840 700.327820,186.578949 729.994446,187.053940 
	C743.159790,187.264740 756.331299,187.092148 770.000000,187.094528 
M1016.966064,909.509705 
	C1021.850830,908.478577 1026.786133,907.641663 1031.612793,906.387024 
	C1101.257690,888.283752 1175.139038,821.517883 1165.997437,717.505127 
	C1160.741333,657.702332 1131.794556,611.161804 1081.103882,579.981995 
	C1025.116699,545.544067 966.005371,543.522522 905.621887,569.681213 
	C834.538940,600.474915 790.386780,681.374146 801.842712,757.261841 
	C810.130981,812.165894 838.411438,854.315369 884.764893,883.907959 
	C924.885803,909.521790 969.210022,916.985901 1016.966064,909.509705 
z"/>
<path fill="#030303" opacity="1.000000" stroke="none" 
	d="
M1016.540161,909.599731 
	C969.210022,916.985901 924.885803,909.521790 884.764893,883.907959 
	C838.411438,854.315369 810.130981,812.165894 801.842712,757.261841 
	C790.386780,681.374146 834.538940,600.474915 905.621887,569.681213 
	C966.005371,543.522522 1025.116699,545.544067 1081.103882,579.981995 
	C1131.794556,611.161804 1160.741333,657.702332 1165.997437,717.505127 
	C1175.139038,821.517883 1101.257690,888.283752 1031.612793,906.387024 
	C1026.786133,907.641663 1021.850830,908.478577 1016.540161,909.599731 
M943.818298,821.745544 
	C958.015869,828.323059 972.949219,830.791016 988.541382,830.187500 
	C1020.342041,828.956299 1045.682983,815.124451 1064.237427,789.805908 
	C1087.615479,757.905396 1088.233154,713.846008 1066.975952,680.114807 
	C1045.543213,646.105286 1006.426575,628.641785 966.808960,635.395264 
	C920.681274,643.258484 885.625610,683.521912 885.267273,730.634888 
	C884.945129,772.993408 904.886414,803.235657 943.818298,821.745544 
z"/>
<path fill="#AD46B2" opacity="1.000000" stroke="none" 
	d="
M943.482056,821.570312 
	C904.886414,803.235657 884.945129,772.993408 885.267273,730.634888 
	C885.625610,683.521912 920.681274,643.258484 966.808960,635.395264 
	C1006.426575,628.641785 1045.543213,646.105286 1066.975952,680.114807 
	C1088.233154,713.846008 1087.615479,757.905396 1064.237427,789.805908 
	C1045.682983,815.124451 1020.342041,828.956299 988.541382,830.187500 
	C972.949219,830.791016 958.015869,828.323059 943.482056,821.570312 
z"/>
</svg>